<svg id="Layer_1" data-name="Layer 1" xmlns="http://www.w3.org/2000/svg" viewBox="0 0 1980 300"><defs><style>.cls-1{fill:#1420b2;}.cls-1,.cls-10,.cls-11,.cls-12,.cls-13,.cls-14,.cls-15,.cls-16,.cls-17,.cls-18,.cls-19,.cls-2,.cls-20,.cls-21,.cls-22,.cls-23,.cls-24,.cls-25,.cls-26,.cls-27,.cls-28,.cls-29,.cls-3,.cls-30,.cls-4,.cls-5,.cls-6,.cls-7,.cls-8,.cls-9{opacity:0.3;}.cls-2{fill:#0f95e8;}.cls-3{fill:#355396;}.cls-4{fill:#5c5cbc;}.cls-5{fill:#0f34ba;}.cls-6{fill:#94aed3;}.cls-7{fill:#1c1347;}.cls-8{fill:#122191;}.cls-9{fill:#476da5;}.cls-10{fill:#557cb5;}.cls-11{fill:#2d3596;}.cls-12{fill:#2f2daa;}.cls-13{fill:#3b92ad;}.cls-14{fill:#2e69aa;}.cls-15{fill:#2d2d84;}.cls-16{fill:#1b5070;}.cls-17{fill:#1b1b3f;}.cls-18{fill:#1525b7;}.cls-19{fill:#1e5a5b;}.cls-20{fill:#1a2c3d;}.cls-21{fill:#1c4684;}.cls-22{fill:none;}.cls-23{fill:#1b0b47;}.cls-24{fill:#0e205b;}.cls-25{fill:#364db2;}.cls-26{fill:#1c2c4c;}.cls-27{fill:#201d60;}.cls-28{fill:#182533;}.cls-29{fill:#226c72;}.cls-30{fill:#4881b5;}</style></defs><title>vs-header-bg</title><polygon class="cls-1" points="101.87 127.39 126.78 84.24 151.7 127.39 101.87 127.39"/><polygon class="cls-2" points="126.78 84.24 101.87 127.39 76.96 84.24 126.78 84.24"/><polygon class="cls-3" points="52.04 127.39 76.96 84.24 101.87 127.39 52.04 127.39"/><polygon class="cls-4" points="76.96 84.24 52.04 127.39 27.13 84.24 76.96 84.24"/><polygon class="cls-5" points="2.22 127.39 27.13 84.24 52.04 127.39 2.22 127.39"/><polygon class="cls-6" points="27.13 84.24 2.22 127.39 -22.7 84.24 27.13 84.24"/><polygon class="cls-7" points="-47.61 127.39 -22.7 84.24 2.22 127.39 -47.61 127.39"/><polygon class="cls-8" points="151.7 41.09 126.78 84.24 101.87 41.09 151.7 41.09"/><polygon class="cls-9" points="76.96 84.24 101.87 41.09 126.78 84.24 76.96 84.24"/><polygon class="cls-10" points="101.87 41.09 76.96 84.24 52.04 41.09 101.87 41.09"/><polygon class="cls-11" points="27.13 84.24 52.04 41.09 76.96 84.24 27.13 84.24"/><polygon class="cls-12" points="52.04 41.09 27.13 84.24 2.22 41.09 52.04 41.09"/><polygon class="cls-13" points="-22.7 84.24 2.22 41.09 27.13 84.24 -22.7 84.24"/><polygon class="cls-14" points="2.22 41.09 -22.7 84.24 -47.61 41.09 2.22 41.09"/><polygon class="cls-15" points="-47.61 41.09 -22.7 -2.06 2.22 41.09 -47.61 41.09"/><polygon class="cls-16" points="27.13 -2.06 2.22 41.09 -22.7 -2.06 27.13 -2.06"/><polygon class="cls-17" points="2.22 41.09 27.13 -2.06 52.04 41.09 2.22 41.09"/><polygon class="cls-18" points="76.96 -2.06 52.04 41.09 27.13 -2.06 76.96 -2.06"/><polygon class="cls-19" points="52.04 41.09 76.96 -2.06 101.87 41.09 52.04 41.09"/><polygon class="cls-20" points="126.78 -2.06 101.87 41.09 76.96 -2.06 126.78 -2.06"/><polygon class="cls-21" points="101.87 41.09 126.78 -2.06 151.7 41.09 101.87 41.09"/><polygon class="cls-22" points="-47.61 41.09 -22.7 -2.06 2.22 41.09 -47.61 41.09"/><polygon class="cls-1" points="301.18 127.39 326.09 84.24 351 127.39 301.18 127.39"/><polygon class="cls-2" points="326.09 84.24 301.18 127.39 276.26 84.24 326.09 84.24"/><polygon class="cls-3" points="251.35 127.39 276.26 84.24 301.18 127.39 251.35 127.39"/><polygon class="cls-4" points="276.26 84.24 251.35 127.39 226.44 84.24 276.26 84.24"/><polygon class="cls-5" points="201.52 127.39 226.44 84.24 251.35 127.39 201.52 127.39"/><polygon class="cls-6" points="226.44 84.24 201.52 127.39 176.61 84.24 226.44 84.24"/><polygon class="cls-7" points="151.7 127.39 176.61 84.24 201.52 127.39 151.7 127.39"/><polygon class="cls-23" points="176.61 84.24 151.7 127.39 126.78 84.24 176.61 84.24"/><polygon class="cls-22" points="101.87 127.39 126.78 84.24 151.7 127.39 101.87 127.39"/><polygon class="cls-8" points="351 41.09 326.09 84.24 301.18 41.09 351 41.09"/><polygon class="cls-9" points="276.26 84.24 301.18 41.09 326.09 84.24 276.26 84.24"/><polygon class="cls-10" points="301.18 41.09 276.26 84.24 251.35 41.09 301.18 41.09"/><polygon class="cls-11" points="226.44 84.24 251.35 41.09 276.26 84.24 226.44 84.24"/><polygon class="cls-12" points="251.35 41.09 226.44 84.24 201.52 41.09 251.35 41.09"/><polygon class="cls-13" points="176.61 84.24 201.52 41.09 226.44 84.24 176.61 84.24"/><polygon class="cls-14" points="201.52 41.09 176.61 84.24 151.7 41.09 201.52 41.09"/><polygon class="cls-24" points="126.78 84.24 151.7 41.09 176.61 84.24 126.78 84.24"/><polygon class="cls-22" points="151.7 41.09 126.78 84.24 101.87 41.09 151.7 41.09"/><polygon class="cls-22" points="550.31 41.09 575.22 -2.06 600.14 41.09 550.31 41.09"/><polygon class="cls-15" points="151.7 41.09 176.61 -2.06 201.52 41.09 151.7 41.09"/><polygon class="cls-16" points="226.44 -2.06 201.52 41.09 176.61 -2.06 226.44 -2.06"/><polygon class="cls-17" points="201.52 41.09 226.44 -2.06 251.35 41.09 201.52 41.09"/><polygon class="cls-18" points="276.26 -2.06 251.35 41.09 226.44 -2.06 276.26 -2.06"/><polygon class="cls-19" points="251.35 41.09 276.26 -2.06 301.18 41.09 251.35 41.09"/><polygon class="cls-20" points="326.09 -2.06 301.18 41.09 276.26 -2.06 326.09 -2.06"/><polygon class="cls-21" points="301.18 41.09 326.09 -2.06 351 41.09 301.18 41.09"/><polygon class="cls-25" points="176.61 -2.06 151.7 41.09 126.78 -2.06 176.61 -2.06"/><polygon class="cls-22" points="151.7 41.09 176.61 -2.06 201.52 41.09 151.7 41.09"/><polygon class="cls-1" points="351 127.39 375.92 84.24 400.83 127.39 351 127.39"/><polygon class="cls-2" points="375.92 84.24 351 127.39 326.09 84.24 375.92 84.24"/><polygon class="cls-8" points="400.83 41.09 375.92 84.24 351 41.09 400.83 41.09"/><polygon class="cls-9" points="326.09 84.24 351 41.09 375.92 84.24 326.09 84.24"/><polygon class="cls-20" points="375.92 -2.06 351 41.09 326.09 -2.06 375.92 -2.06"/><polygon class="cls-21" points="351 41.09 375.92 -2.06 400.83 41.09 351 41.09"/><polygon class="cls-1" points="550.31 127.39 575.22 84.24 600.14 127.39 550.31 127.39"/><polygon class="cls-2" points="575.22 84.24 550.31 127.39 525.4 84.24 575.22 84.24"/><polygon class="cls-3" points="500.48 127.39 525.4 84.24 550.31 127.39 500.48 127.39"/><polygon class="cls-4" points="525.4 84.24 500.48 127.39 475.57 84.24 525.4 84.24"/><polygon class="cls-5" points="450.66 127.39 475.57 84.24 500.48 127.39 450.66 127.39"/><polygon class="cls-6" points="475.57 84.24 450.66 127.39 425.74 84.24 475.57 84.24"/><polygon class="cls-7" points="400.83 127.39 425.74 84.24 450.66 127.39 400.83 127.39"/><polygon class="cls-23" points="425.74 84.24 400.83 127.39 375.92 84.24 425.74 84.24"/><polygon class="cls-22" points="351 127.39 375.92 84.24 400.83 127.39 351 127.39"/><polygon class="cls-8" points="600.14 41.09 575.22 84.24 550.31 41.09 600.14 41.09"/><polygon class="cls-9" points="525.4 84.24 550.31 41.09 575.22 84.24 525.4 84.24"/><polygon class="cls-10" points="550.31 41.09 525.4 84.24 500.48 41.09 550.31 41.09"/><polygon class="cls-11" points="475.57 84.24 500.48 41.09 525.4 84.24 475.57 84.24"/><polygon class="cls-12" points="500.48 41.09 475.57 84.24 450.66 41.09 500.48 41.09"/><polygon class="cls-13" points="425.74 84.24 450.66 41.09 475.57 84.24 425.74 84.24"/><polygon class="cls-14" points="450.66 41.09 425.74 84.24 400.83 41.09 450.66 41.09"/><polygon class="cls-24" points="375.92 84.24 400.83 41.09 425.74 84.24 375.92 84.24"/><polygon class="cls-22" points="400.83 41.09 375.92 84.24 351 41.09 400.83 41.09"/><polygon class="cls-15" points="400.83 41.09 425.74 -2.06 450.66 41.09 400.83 41.09"/><polygon class="cls-16" points="475.57 -2.06 450.66 41.09 425.74 -2.06 475.57 -2.06"/><polygon class="cls-17" points="450.66 41.09 475.57 -2.06 500.48 41.09 450.66 41.09"/><polygon class="cls-18" points="525.4 -2.06 500.48 41.09 475.57 -2.06 525.4 -2.06"/><polygon class="cls-19" points="500.48 41.09 525.4 -2.06 550.31 41.09 500.48 41.09"/><polygon class="cls-20" points="575.22 -2.06 550.31 41.09 525.4 -2.06 575.22 -2.06"/><polygon class="cls-21" points="550.31 41.09 575.22 -2.06 600.14 41.09 550.31 41.09"/><polygon class="cls-25" points="425.74 -2.06 400.83 41.09 375.92 -2.06 425.74 -2.06"/><polygon class="cls-22" points="400.83 41.09 425.74 -2.06 450.66 41.09 400.83 41.09"/><polygon class="cls-22" points="600.14 37.4 575.22 80.55 550.31 37.4 600.14 37.4"/><polygon class="cls-8" points="799.44 41.09 824.36 -2.06 849.27 41.09 799.44 41.09"/><polygon class="cls-9" points="874.18 -2.06 849.27 41.09 824.36 -2.06 874.18 -2.06"/><polygon class="cls-10" points="849.27 41.09 874.18 -2.06 899.1 41.09 849.27 41.09"/><polygon class="cls-11" points="924.01 -2.06 899.1 41.09 874.18 -2.06 924.01 -2.06"/><polygon class="cls-12" points="899.1 41.09 924.01 -2.06 948.92 41.09 899.1 41.09"/><polygon class="cls-13" points="973.84 -2.06 948.92 41.09 924.01 -2.06 973.84 -2.06"/><polygon class="cls-14" points="948.92 41.09 973.84 -2.06 998.75 41.09 948.92 41.09"/><polygon class="cls-24" points="1023.66 -2.06 998.75 41.09 973.84 -2.06 1023.66 -2.06"/><polygon class="cls-26" points="948.92 127.39 973.84 84.24 998.75 127.39 948.92 127.39"/><polygon class="cls-27" points="973.84 84.24 948.92 127.39 924.01 84.24 973.84 84.24"/><polygon class="cls-16" points="899.1 127.39 924.01 84.24 948.92 127.39 899.1 127.39"/><polygon class="cls-15" points="924.01 84.24 899.1 127.39 874.18 84.24 924.01 84.24"/><polygon class="cls-17" points="849.27 127.39 874.18 84.24 899.1 127.39 849.27 127.39"/><polygon class="cls-28" points="874.18 84.24 849.27 127.39 824.36 84.24 874.18 84.24"/><polygon class="cls-29" points="799.44 127.39 824.36 84.24 849.27 127.39 799.44 127.39"/><polygon class="cls-15" points="998.75 41.09 973.84 84.24 948.92 41.09 998.75 41.09"/><polygon class="cls-16" points="924.01 84.24 948.92 41.09 973.84 84.24 924.01 84.24"/><polygon class="cls-17" points="948.92 41.09 924.01 84.24 899.1 41.09 948.92 41.09"/><polygon class="cls-18" points="874.18 84.24 899.1 41.09 924.01 84.24 874.18 84.24"/><polygon class="cls-19" points="899.1 41.09 874.18 84.24 849.27 41.09 899.1 41.09"/><polygon class="cls-20" points="824.36 84.24 849.27 41.09 874.18 84.24 824.36 84.24"/><polygon class="cls-21" points="849.27 41.09 824.36 84.24 799.44 41.09 849.27 41.09"/><polygon class="cls-30" points="1023.66 84.24 998.75 127.39 973.84 84.24 1023.66 84.24"/><polygon class="cls-22" points="948.92 127.39 973.84 84.24 998.75 127.39 948.92 127.39"/><polygon class="cls-25" points="973.84 84.24 998.75 41.09 1023.66 84.24 973.84 84.24"/><polygon class="cls-22" points="998.75 41.09 973.84 84.24 948.92 41.09 998.75 41.09"/><polygon class="cls-8" points="600.14 41.09 625.05 -2.06 649.96 41.09 600.14 41.09"/><polygon class="cls-9" points="674.88 -2.06 649.96 41.09 625.05 -2.06 674.88 -2.06"/><polygon class="cls-10" points="649.96 41.09 674.88 -2.06 699.79 41.09 649.96 41.09"/><polygon class="cls-11" points="724.7 -2.06 699.79 41.09 674.88 -2.06 724.7 -2.06"/><polygon class="cls-12" points="699.79 41.09 724.7 -2.06 749.62 41.09 699.79 41.09"/><polygon class="cls-13" points="774.53 -2.06 749.62 41.09 724.7 -2.06 774.53 -2.06"/><polygon class="cls-14" points="749.62 41.09 774.53 -2.06 799.44 41.09 749.62 41.09"/><polygon class="cls-24" points="824.36 -2.06 799.44 41.09 774.53 -2.06 824.36 -2.06"/><polygon class="cls-22" points="799.44 41.09 824.36 -2.06 849.27 41.09 799.44 41.09"/><polygon class="cls-26" points="749.62 127.39 774.53 84.24 799.44 127.39 749.62 127.39"/><polygon class="cls-27" points="774.53 84.24 749.62 127.39 724.7 84.24 774.53 84.24"/><polygon class="cls-16" points="699.79 127.39 724.7 84.24 749.62 127.39 699.79 127.39"/><polygon class="cls-15" points="724.7 84.24 699.79 127.39 674.88 84.24 724.7 84.24"/><polygon class="cls-17" points="649.96 127.39 674.88 84.24 699.79 127.39 649.96 127.39"/><polygon class="cls-28" points="674.88 84.24 649.96 127.39 625.05 84.24 674.88 84.24"/><polygon class="cls-29" points="600.14 127.39 625.05 84.24 649.96 127.39 600.14 127.39"/><polygon class="cls-15" points="799.44 41.09 774.53 84.24 749.62 41.09 799.44 41.09"/><polygon class="cls-16" points="724.7 84.24 749.62 41.09 774.53 84.24 724.7 84.24"/><polygon class="cls-17" points="749.62 41.09 724.7 84.24 699.79 41.09 749.62 41.09"/><polygon class="cls-18" points="674.88 84.24 699.79 41.09 724.7 84.24 674.88 84.24"/><polygon class="cls-19" points="699.79 41.09 674.88 84.24 649.96 41.09 699.79 41.09"/><polygon class="cls-20" points="625.05 84.24 649.96 41.09 674.88 84.24 625.05 84.24"/><polygon class="cls-21" points="649.96 41.09 625.05 84.24 600.14 41.09 649.96 41.09"/><polygon class="cls-30" points="824.36 84.24 799.44 127.39 774.53 84.24 824.36 84.24"/><polygon class="cls-22" points="749.62 127.39 774.53 84.24 799.44 127.39 749.62 127.39"/><polygon class="cls-25" points="774.53 84.24 799.44 41.09 824.36 84.24 774.53 84.24"/><polygon class="cls-22" points="799.44 41.09 774.53 84.24 749.62 41.09 799.44 41.09"/><polygon class="cls-9" points="625.05 -2.06 600.14 41.09 575.22 -2.06 625.05 -2.06"/><polygon class="cls-28" points="625.05 84.24 600.14 127.39 575.22 84.24 625.05 84.24"/><polygon class="cls-20" points="575.22 84.24 600.14 41.09 625.05 84.24 575.22 84.24"/><polygon class="cls-1" points="101.87 300 126.78 256.85 151.7 300 101.87 300"/><polygon class="cls-2" points="126.78 256.85 101.87 300 76.96 256.85 126.78 256.85"/><polygon class="cls-3" points="52.04 300 76.96 256.85 101.87 300 52.04 300"/><polygon class="cls-4" points="76.96 256.85 52.04 300 27.13 256.85 76.96 256.85"/><polygon class="cls-5" points="2.22 300 27.13 256.85 52.04 300 2.22 300"/><polygon class="cls-6" points="27.13 256.85 2.22 300 -22.7 256.85 27.13 256.85"/><polygon class="cls-7" points="-47.61 300 -22.7 256.85 2.22 300 -47.61 300"/><polygon class="cls-8" points="151.7 213.7 126.78 256.85 101.87 213.7 151.7 213.7"/><polygon class="cls-9" points="76.96 256.85 101.87 213.7 126.78 256.85 76.96 256.85"/><polygon class="cls-10" points="101.87 213.7 76.96 256.85 52.04 213.7 101.87 213.7"/><polygon class="cls-11" points="27.13 256.85 52.04 213.7 76.96 256.85 27.13 256.85"/><polygon class="cls-12" points="52.04 213.7 27.13 256.85 2.22 213.7 52.04 213.7"/><polygon class="cls-13" points="-22.7 256.85 2.22 213.7 27.13 256.85 -22.7 256.85"/><polygon class="cls-14" points="2.22 213.7 -22.7 256.85 -47.61 213.7 2.22 213.7"/><polygon class="cls-26" points="2.22 127.39 -22.7 170.54 -47.61 127.39 2.22 127.39"/><polygon class="cls-27" points="-22.7 170.54 2.22 127.39 27.13 170.54 -22.7 170.54"/><polygon class="cls-16" points="52.04 127.39 27.13 170.54 2.22 127.39 52.04 127.39"/><polygon class="cls-15" points="27.13 170.54 52.04 127.39 76.96 170.54 27.13 170.54"/><polygon class="cls-17" points="101.87 127.39 76.96 170.54 52.04 127.39 101.87 127.39"/><polygon class="cls-28" points="76.96 170.54 101.87 127.39 126.78 170.54 76.96 170.54"/><polygon class="cls-29" points="151.7 127.39 126.78 170.54 101.87 127.39 151.7 127.39"/><polygon class="cls-15" points="-47.61 213.7 -22.7 170.54 2.22 213.7 -47.61 213.7"/><polygon class="cls-16" points="27.13 170.54 2.22 213.7 -22.7 170.54 27.13 170.54"/><polygon class="cls-17" points="2.22 213.7 27.13 170.54 52.04 213.7 2.22 213.7"/><polygon class="cls-18" points="76.96 170.54 52.04 213.7 27.13 170.54 76.96 170.54"/><polygon class="cls-19" points="52.04 213.7 76.96 170.54 101.87 213.7 52.04 213.7"/><polygon class="cls-20" points="126.78 170.54 101.87 213.7 76.96 170.54 126.78 170.54"/><polygon class="cls-21" points="101.87 213.7 126.78 170.54 151.7 213.7 101.87 213.7"/><polygon class="cls-22" points="2.22 127.39 -22.7 170.54 -47.61 127.39 2.22 127.39"/><polygon class="cls-22" points="-47.61 213.7 -22.7 170.54 2.22 213.7 -47.61 213.7"/><polygon class="cls-1" points="301.18 300 326.09 256.85 351 300 301.18 300"/><polygon class="cls-2" points="326.09 256.85 301.18 300 276.26 256.85 326.09 256.85"/><polygon class="cls-3" points="251.35 300 276.26 256.85 301.18 300 251.35 300"/><polygon class="cls-4" points="276.26 256.85 251.35 300 226.44 256.85 276.26 256.85"/><polygon class="cls-5" points="201.52 300 226.44 256.85 251.35 300 201.52 300"/><polygon class="cls-6" points="226.44 256.85 201.52 300 176.61 256.85 226.44 256.85"/><polygon class="cls-7" points="151.7 300 176.61 256.85 201.52 300 151.7 300"/><polygon class="cls-23" points="176.61 256.85 151.7 300 126.78 256.85 176.61 256.85"/><polygon class="cls-22" points="101.87 300 126.78 256.85 151.7 300 101.87 300"/><polygon class="cls-8" points="351 213.7 326.09 256.85 301.18 213.7 351 213.7"/><polygon class="cls-9" points="276.26 256.85 301.18 213.7 326.09 256.85 276.26 256.85"/><polygon class="cls-10" points="301.18 213.7 276.26 256.85 251.35 213.7 301.18 213.7"/><polygon class="cls-11" points="226.44 256.85 251.35 213.7 276.26 256.85 226.44 256.85"/><polygon class="cls-12" points="251.35 213.7 226.44 256.85 201.52 213.7 251.35 213.7"/><polygon class="cls-13" points="176.61 256.85 201.52 213.7 226.44 256.85 176.61 256.85"/><polygon class="cls-14" points="201.52 213.7 176.61 256.85 151.7 213.7 201.52 213.7"/><polygon class="cls-24" points="126.78 256.85 151.7 213.7 176.61 256.85 126.78 256.85"/><polygon class="cls-22" points="151.7 213.7 126.78 256.85 101.87 213.7 151.7 213.7"/><polygon class="cls-22" points="550.31 213.7 575.22 170.54 600.14 213.7 550.31 213.7"/><polygon class="cls-22" points="600.14 127.39 575.22 170.54 550.31 127.39 600.14 127.39"/><polygon class="cls-26" points="201.52 127.39 176.61 170.54 151.7 127.39 201.52 127.39"/><polygon class="cls-27" points="176.61 170.54 201.52 127.39 226.44 170.54 176.61 170.54"/><polygon class="cls-16" points="251.35 127.39 226.44 170.54 201.52 127.39 251.35 127.39"/><polygon class="cls-15" points="226.44 170.54 251.35 127.39 276.26 170.54 226.44 170.54"/><polygon class="cls-17" points="301.18 127.39 276.26 170.54 251.35 127.39 301.18 127.39"/><polygon class="cls-28" points="276.26 170.54 301.18 127.39 326.09 170.54 276.26 170.54"/><polygon class="cls-29" points="351 127.39 326.09 170.54 301.18 127.39 351 127.39"/><polygon class="cls-15" points="151.7 213.7 176.61 170.54 201.52 213.7 151.7 213.7"/><polygon class="cls-16" points="226.44 170.54 201.52 213.7 176.61 170.54 226.44 170.54"/><polygon class="cls-17" points="201.52 213.7 226.44 170.54 251.35 213.7 201.52 213.7"/><polygon class="cls-18" points="276.26 170.54 251.35 213.7 226.44 170.54 276.26 170.54"/><polygon class="cls-19" points="251.35 213.7 276.26 170.54 301.18 213.7 251.35 213.7"/><polygon class="cls-20" points="326.09 170.54 301.18 213.7 276.26 170.54 326.09 170.54"/><polygon class="cls-21" points="301.18 213.7 326.09 170.54 351 213.7 301.18 213.7"/><polygon class="cls-30" points="126.78 170.54 151.7 127.39 176.61 170.54 126.78 170.54"/><polygon class="cls-22" points="201.52 127.39 176.61 170.54 151.7 127.39 201.52 127.39"/><polygon class="cls-25" points="176.61 170.54 151.7 213.7 126.78 170.54 176.61 170.54"/><polygon class="cls-22" points="151.7 213.7 176.61 170.54 201.52 213.7 151.7 213.7"/><polygon class="cls-1" points="351 300 375.92 256.85 400.83 300 351 300"/><polygon class="cls-2" points="375.92 256.85 351 300 326.09 256.85 375.92 256.85"/><polygon class="cls-8" points="400.83 213.7 375.92 256.85 351 213.7 400.83 213.7"/><polygon class="cls-9" points="326.09 256.85 351 213.7 375.92 256.85 326.09 256.85"/><polygon class="cls-28" points="326.09 170.54 351 127.39 375.92 170.54 326.09 170.54"/><polygon class="cls-29" points="400.83 127.39 375.92 170.54 351 127.39 400.83 127.39"/><polygon class="cls-20" points="375.92 170.54 351 213.7 326.09 170.54 375.92 170.54"/><polygon class="cls-21" points="351 213.7 375.92 170.54 400.83 213.7 351 213.7"/><polygon class="cls-1" points="550.31 300 575.22 256.85 600.14 300 550.31 300"/><polygon class="cls-2" points="575.22 256.85 550.31 300 525.4 256.85 575.22 256.85"/><polygon class="cls-3" points="500.48 300 525.4 256.85 550.31 300 500.48 300"/><polygon class="cls-4" points="525.4 256.85 500.48 300 475.57 256.85 525.4 256.85"/><polygon class="cls-5" points="450.66 300 475.57 256.85 500.48 300 450.66 300"/><polygon class="cls-6" points="475.57 256.85 450.66 300 425.74 256.85 475.57 256.85"/><polygon class="cls-7" points="400.83 300 425.74 256.85 450.66 300 400.83 300"/><polygon class="cls-23" points="425.74 256.85 400.83 300 375.92 256.85 425.74 256.85"/><polygon class="cls-22" points="351 300 375.92 256.85 400.83 300 351 300"/><polygon class="cls-8" points="600.14 213.7 575.22 256.85 550.31 213.7 600.14 213.7"/><polygon class="cls-9" points="525.4 256.85 550.31 213.7 575.22 256.85 525.4 256.85"/><polygon class="cls-10" points="550.31 213.7 525.4 256.85 500.48 213.7 550.31 213.7"/><polygon class="cls-11" points="475.57 256.85 500.48 213.7 525.4 256.85 475.57 256.85"/><polygon class="cls-12" points="500.48 213.7 475.57 256.85 450.66 213.7 500.48 213.7"/><polygon class="cls-13" points="425.74 256.85 450.66 213.7 475.57 256.85 425.74 256.85"/><polygon class="cls-14" points="450.66 213.7 425.74 256.85 400.83 213.7 450.66 213.7"/><polygon class="cls-24" points="375.92 256.85 400.83 213.7 425.74 256.85 375.92 256.85"/><polygon class="cls-22" points="400.83 213.7 375.92 256.85 351 213.7 400.83 213.7"/><polygon class="cls-26" points="450.66 127.39 425.74 170.54 400.83 127.39 450.66 127.39"/><polygon class="cls-27" points="425.74 170.54 450.66 127.39 475.57 170.54 425.74 170.54"/><polygon class="cls-16" points="500.48 127.39 475.57 170.54 450.66 127.39 500.48 127.39"/><polygon class="cls-15" points="475.57 170.54 500.48 127.39 525.4 170.54 475.57 170.54"/><polygon class="cls-17" points="550.31 127.39 525.4 170.54 500.48 127.39 550.31 127.39"/><polygon class="cls-28" points="525.4 170.54 550.31 127.39 575.22 170.54 525.4 170.54"/><polygon class="cls-29" points="600.14 127.39 575.22 170.54 550.31 127.39 600.14 127.39"/><polygon class="cls-15" points="400.83 213.7 425.74 170.54 450.66 213.7 400.83 213.7"/><polygon class="cls-16" points="475.57 170.54 450.66 213.7 425.74 170.54 475.57 170.54"/><polygon class="cls-17" points="450.66 213.7 475.57 170.54 500.48 213.7 450.66 213.7"/><polygon class="cls-18" points="525.4 170.54 500.48 213.7 475.57 170.54 525.4 170.54"/><polygon class="cls-19" points="500.48 213.7 525.4 170.54 550.31 213.7 500.48 213.7"/><polygon class="cls-20" points="575.22 170.54 550.31 213.7 525.4 170.54 575.22 170.54"/><polygon class="cls-21" points="550.31 213.7 575.22 170.54 600.14 213.7 550.31 213.7"/><polygon class="cls-30" points="375.92 170.54 400.83 127.39 425.74 170.54 375.92 170.54"/><polygon class="cls-22" points="450.66 127.39 425.74 170.54 400.83 127.39 450.66 127.39"/><polygon class="cls-25" points="425.74 170.54 400.83 213.7 375.92 170.54 425.74 170.54"/><polygon class="cls-22" points="400.83 213.7 425.74 170.54 450.66 213.7 400.83 213.7"/><polygon class="cls-22" points="600.14 210.01 575.22 253.16 550.31 210.01 600.14 210.01"/><polygon class="cls-1" points="849.27 127.39 824.36 170.54 799.44 127.39 849.27 127.39"/><polygon class="cls-2" points="824.36 170.54 849.27 127.39 874.18 170.54 824.36 170.54"/><polygon class="cls-3" points="899.1 127.39 874.18 170.54 849.27 127.39 899.1 127.39"/><polygon class="cls-4" points="874.18 170.54 899.1 127.39 924.01 170.54 874.18 170.54"/><polygon class="cls-5" points="948.92 127.39 924.01 170.54 899.1 127.39 948.92 127.39"/><polygon class="cls-6" points="924.01 170.54 948.92 127.39 973.84 170.54 924.01 170.54"/><polygon class="cls-7" points="998.75 127.39 973.84 170.54 948.92 127.39 998.75 127.39"/><polygon class="cls-23" points="973.84 170.54 998.75 127.39 1023.66 170.54 973.84 170.54"/><polygon class="cls-8" points="799.44 213.7 824.36 170.54 849.27 213.7 799.44 213.7"/><polygon class="cls-9" points="874.18 170.54 849.27 213.7 824.36 170.54 874.18 170.54"/><polygon class="cls-10" points="849.27 213.7 874.18 170.54 899.1 213.7 849.27 213.7"/><polygon class="cls-11" points="924.01 170.54 899.1 213.7 874.18 170.54 924.01 170.54"/><polygon class="cls-12" points="899.1 213.7 924.01 170.54 948.92 213.7 899.1 213.7"/><polygon class="cls-13" points="973.84 170.54 948.92 213.7 924.01 170.54 973.84 170.54"/><polygon class="cls-14" points="948.92 213.7 973.84 170.54 998.75 213.7 948.92 213.7"/><polygon class="cls-24" points="1023.66 170.54 998.75 213.7 973.84 170.54 1023.66 170.54"/><polygon class="cls-26" points="948.92 300 973.84 256.85 998.75 300 948.92 300"/><polygon class="cls-27" points="973.84 256.85 948.92 300 924.01 256.85 973.84 256.85"/><polygon class="cls-16" points="899.1 300 924.01 256.85 948.92 300 899.1 300"/><polygon class="cls-15" points="924.01 256.85 899.1 300 874.18 256.85 924.01 256.85"/><polygon class="cls-17" points="849.27 300 874.18 256.85 899.1 300 849.27 300"/><polygon class="cls-28" points="874.18 256.85 849.27 300 824.36 256.85 874.18 256.85"/><polygon class="cls-29" points="799.44 300 824.36 256.85 849.27 300 799.44 300"/><polygon class="cls-15" points="998.75 213.7 973.84 256.85 948.92 213.7 998.75 213.7"/><polygon class="cls-16" points="924.01 256.85 948.92 213.7 973.84 256.85 924.01 256.85"/><polygon class="cls-17" points="948.92 213.7 924.01 256.85 899.1 213.7 948.92 213.7"/><polygon class="cls-18" points="874.18 256.85 899.1 213.7 924.01 256.85 874.18 256.85"/><polygon class="cls-19" points="899.1 213.7 874.18 256.85 849.27 213.7 899.1 213.7"/><polygon class="cls-20" points="824.36 256.85 849.27 213.7 874.18 256.85 824.36 256.85"/><polygon class="cls-21" points="849.27 213.7 824.36 256.85 799.44 213.7 849.27 213.7"/><polygon class="cls-30" points="1023.66 256.85 998.75 300 973.84 256.85 1023.66 256.85"/><polygon class="cls-22" points="948.92 300 973.84 256.85 998.75 300 948.92 300"/><polygon class="cls-25" points="973.84 256.85 998.75 213.7 1023.66 256.85 973.84 256.85"/><polygon class="cls-22" points="998.75 213.7 973.84 256.85 948.92 213.7 998.75 213.7"/><polygon class="cls-1" points="649.96 127.39 625.05 170.54 600.14 127.39 649.96 127.39"/><polygon class="cls-2" points="625.05 170.54 649.96 127.39 674.88 170.54 625.05 170.54"/><polygon class="cls-3" points="699.79 127.39 674.88 170.54 649.96 127.39 699.79 127.39"/><polygon class="cls-4" points="674.88 170.54 699.79 127.39 724.7 170.54 674.88 170.54"/><polygon class="cls-5" points="749.62 127.39 724.7 170.54 699.79 127.39 749.62 127.39"/><polygon class="cls-6" points="724.7 170.54 749.62 127.39 774.53 170.54 724.7 170.54"/><polygon class="cls-7" points="799.44 127.39 774.53 170.54 749.62 127.39 799.44 127.39"/><polygon class="cls-23" points="774.53 170.54 799.44 127.39 824.36 170.54 774.53 170.54"/><polygon class="cls-22" points="849.27 127.39 824.36 170.54 799.44 127.39 849.27 127.39"/><polygon class="cls-8" points="600.14 213.7 625.05 170.54 649.96 213.7 600.14 213.7"/><polygon class="cls-9" points="674.88 170.54 649.96 213.7 625.05 170.54 674.88 170.54"/><polygon class="cls-10" points="649.96 213.7 674.88 170.54 699.79 213.7 649.96 213.7"/><polygon class="cls-11" points="724.7 170.54 699.79 213.7 674.88 170.54 724.7 170.54"/><polygon class="cls-12" points="699.79 213.7 724.7 170.54 749.62 213.7 699.79 213.7"/><polygon class="cls-13" points="774.53 170.54 749.62 213.7 724.7 170.54 774.53 170.54"/><polygon class="cls-14" points="749.62 213.7 774.53 170.54 799.44 213.7 749.62 213.7"/><polygon class="cls-24" points="824.36 170.54 799.44 213.7 774.53 170.54 824.36 170.54"/><polygon class="cls-22" points="799.44 213.7 824.36 170.54 849.27 213.7 799.44 213.7"/><polygon class="cls-26" points="749.62 300 774.53 256.85 799.44 300 749.62 300"/><polygon class="cls-27" points="774.53 256.85 749.62 300 724.7 256.85 774.53 256.85"/><polygon class="cls-16" points="699.79 300 724.7 256.85 749.62 300 699.79 300"/><polygon class="cls-15" points="724.7 256.85 699.79 300 674.88 256.85 724.7 256.85"/><polygon class="cls-17" points="649.96 300 674.88 256.85 699.79 300 649.96 300"/><polygon class="cls-28" points="674.88 256.85 649.96 300 625.05 256.85 674.88 256.85"/><polygon class="cls-29" points="600.14 300 625.05 256.85 649.96 300 600.14 300"/><polygon class="cls-15" points="799.44 213.7 774.53 256.85 749.62 213.7 799.44 213.7"/><polygon class="cls-16" points="724.7 256.85 749.62 213.7 774.53 256.85 724.7 256.85"/><polygon class="cls-17" points="749.62 213.7 724.7 256.85 699.79 213.7 749.62 213.7"/><polygon class="cls-18" points="674.88 256.85 699.79 213.7 724.7 256.85 674.88 256.85"/><polygon class="cls-19" points="699.79 213.7 674.88 256.85 649.96 213.7 699.79 213.7"/><polygon class="cls-20" points="625.05 256.85 649.96 213.7 674.88 256.85 625.05 256.85"/><polygon class="cls-21" points="649.96 213.7 625.05 256.85 600.14 213.7 649.96 213.7"/><polygon class="cls-30" points="824.36 256.85 799.44 300 774.53 256.85 824.36 256.85"/><polygon class="cls-22" points="749.62 300 774.53 256.85 799.44 300 749.62 300"/><polygon class="cls-25" points="774.53 256.85 799.44 213.7 824.36 256.85 774.53 256.85"/><polygon class="cls-22" points="799.44 213.7 774.53 256.85 749.62 213.7 799.44 213.7"/><polygon class="cls-2" points="575.22 170.54 600.14 127.39 625.05 170.54 575.22 170.54"/><polygon class="cls-9" points="625.05 170.54 600.14 213.7 575.22 170.54 625.05 170.54"/><polygon class="cls-28" points="625.05 256.85 600.14 300 575.22 256.85 625.05 256.85"/><polygon class="cls-20" points="575.22 256.85 600.14 213.7 625.05 256.85 575.22 256.85"/><polygon class="cls-22" points="600.14 127.39 575.22 170.54 550.31 127.39 600.14 127.39"/><polygon class="cls-22" points="948.92 127.39 973.84 84.24 998.75 127.39 948.92 127.39"/><polygon class="cls-22" points="998.75 41.09 973.84 84.24 948.92 41.09 998.75 41.09"/><polygon class="cls-22" points="948.92 300 973.84 256.85 998.75 300 948.92 300"/><polygon class="cls-22" points="998.75 213.7 973.84 256.85 948.92 213.7 998.75 213.7"/><polygon class="cls-1" points="1920.54 170.54 1895.63 213.7 1870.72 170.54 1920.54 170.54"/><polygon class="cls-2" points="1895.63 213.7 1920.54 170.54 1945.46 213.7 1895.63 213.7"/><polygon class="cls-3" points="1970.37 170.54 1945.46 213.7 1920.54 170.54 1970.37 170.54"/><polygon class="cls-4" points="1945.46 213.7 1970.37 170.54 1995.28 213.7 1945.46 213.7"/><polygon class="cls-5" points="2020.2 170.54 1995.28 213.7 1970.37 170.54 2020.2 170.54"/><polygon class="cls-22" points="998.75 127.39 1023.66 84.24 1048.58 127.39 998.75 127.39"/><polygon class="cls-8" points="1870.72 256.85 1895.63 213.7 1920.54 256.85 1870.72 256.85"/><polygon class="cls-9" points="1945.46 213.7 1920.54 256.85 1895.63 213.7 1945.46 213.7"/><polygon class="cls-10" points="1920.54 256.85 1945.46 213.7 1970.37 256.85 1920.54 256.85"/><polygon class="cls-11" points="1995.28 213.7 1970.37 256.85 1945.46 213.7 1995.28 213.7"/><polygon class="cls-12" points="1970.37 256.85 1995.28 213.7 2020.2 256.85 1970.37 256.85"/><polygon class="cls-22" points="1048.58 41.09 1023.66 84.24 998.75 41.09 1048.58 41.09"/><polygon class="cls-17" points="2020.2 256.85 1995.28 300 1970.37 256.85 2020.2 256.85"/><polygon class="cls-18" points="1945.46 300 1970.37 256.85 1995.28 300 1945.46 300"/><polygon class="cls-19" points="1970.37 256.85 1945.46 300 1920.54 256.85 1970.37 256.85"/><polygon class="cls-20" points="1895.63 300 1920.54 256.85 1945.46 300 1895.63 300"/><polygon class="cls-21" points="1920.54 256.85 1895.63 300 1870.72 256.85 1920.54 256.85"/><polygon class="cls-1" points="1721.24 170.54 1696.32 213.7 1671.41 170.54 1721.24 170.54"/><polygon class="cls-2" points="1696.32 213.7 1721.24 170.54 1746.15 213.7 1696.32 213.7"/><polygon class="cls-3" points="1771.06 170.54 1746.15 213.7 1721.24 170.54 1771.06 170.54"/><polygon class="cls-4" points="1746.15 213.7 1771.06 170.54 1795.98 213.7 1746.15 213.7"/><polygon class="cls-5" points="1820.89 170.54 1795.98 213.7 1771.06 170.54 1820.89 170.54"/><polygon class="cls-6" points="1795.98 213.7 1820.89 170.54 1845.8 213.7 1795.98 213.7"/><polygon class="cls-7" points="1870.72 170.54 1845.8 213.7 1820.89 170.54 1870.72 170.54"/><polygon class="cls-23" points="1845.8 213.7 1870.72 170.54 1895.63 213.7 1845.8 213.7"/><polygon class="cls-22" points="1920.54 170.54 1895.63 213.7 1870.72 170.54 1920.54 170.54"/><polygon class="cls-8" points="1671.41 256.85 1696.32 213.7 1721.24 256.85 1671.41 256.85"/><polygon class="cls-9" points="1746.15 213.7 1721.24 256.85 1696.32 213.7 1746.15 213.7"/><polygon class="cls-10" points="1721.24 256.85 1746.15 213.7 1771.06 256.85 1721.24 256.85"/><polygon class="cls-11" points="1795.98 213.7 1771.06 256.85 1746.15 213.7 1795.98 213.7"/><polygon class="cls-12" points="1771.06 256.85 1795.98 213.7 1820.89 256.85 1771.06 256.85"/><polygon class="cls-13" points="1845.8 213.7 1820.89 256.85 1795.98 213.7 1845.8 213.7"/><polygon class="cls-14" points="1820.89 256.85 1845.8 213.7 1870.72 256.85 1820.89 256.85"/><polygon class="cls-24" points="1895.63 213.7 1870.72 256.85 1845.8 213.7 1895.63 213.7"/><polygon class="cls-22" points="1870.72 256.85 1895.63 213.7 1920.54 256.85 1870.72 256.85"/><polygon class="cls-22" points="1472.1 256.85 1447.19 300 1422.28 256.85 1472.1 256.85"/><polygon class="cls-15" points="1870.72 256.85 1845.8 300 1820.89 256.85 1870.72 256.85"/><polygon class="cls-16" points="1795.98 300 1820.89 256.85 1845.8 300 1795.98 300"/><polygon class="cls-17" points="1820.89 256.85 1795.98 300 1771.06 256.85 1820.89 256.85"/><polygon class="cls-18" points="1746.15 300 1771.06 256.85 1795.98 300 1746.15 300"/><polygon class="cls-19" points="1771.06 256.85 1746.15 300 1721.24 256.85 1771.06 256.85"/><polygon class="cls-20" points="1696.32 300 1721.24 256.85 1746.15 300 1696.32 300"/><polygon class="cls-21" points="1721.24 256.85 1696.32 300 1671.41 256.85 1721.24 256.85"/><polygon class="cls-25" points="1845.8 300 1870.72 256.85 1895.63 300 1845.8 300"/><polygon class="cls-22" points="1870.72 256.85 1845.8 300 1820.89 256.85 1870.72 256.85"/><polygon class="cls-1" points="1671.41 170.54 1646.5 213.7 1621.58 170.54 1671.41 170.54"/><polygon class="cls-2" points="1646.5 213.7 1671.41 170.54 1696.32 213.7 1646.5 213.7"/><polygon class="cls-8" points="1621.58 256.85 1646.5 213.7 1671.41 256.85 1621.58 256.85"/><polygon class="cls-9" points="1696.32 213.7 1671.41 256.85 1646.5 213.7 1696.32 213.7"/><polygon class="cls-20" points="1646.5 300 1671.41 256.85 1696.32 300 1646.5 300"/><polygon class="cls-21" points="1671.41 256.85 1646.5 300 1621.58 256.85 1671.41 256.85"/><polygon class="cls-1" points="1472.1 170.54 1447.19 213.7 1422.28 170.54 1472.1 170.54"/><polygon class="cls-2" points="1447.19 213.7 1472.1 170.54 1497.02 213.7 1447.19 213.7"/><polygon class="cls-3" points="1521.93 170.54 1497.02 213.7 1472.1 170.54 1521.93 170.54"/><polygon class="cls-4" points="1497.02 213.7 1521.93 170.54 1546.84 213.7 1497.02 213.7"/><polygon class="cls-5" points="1571.76 170.54 1546.84 213.7 1521.93 170.54 1571.76 170.54"/><polygon class="cls-6" points="1546.84 213.7 1571.76 170.54 1596.67 213.7 1546.84 213.7"/><polygon class="cls-7" points="1621.58 170.54 1596.67 213.7 1571.76 170.54 1621.58 170.54"/><polygon class="cls-23" points="1596.67 213.7 1621.58 170.54 1646.5 213.7 1596.67 213.7"/><polygon class="cls-22" points="1671.41 170.54 1646.5 213.7 1621.58 170.54 1671.41 170.54"/><polygon class="cls-8" points="1422.28 256.85 1447.19 213.7 1472.1 256.85 1422.28 256.85"/><polygon class="cls-9" points="1497.02 213.7 1472.1 256.85 1447.19 213.7 1497.02 213.7"/><polygon class="cls-10" points="1472.1 256.85 1497.02 213.7 1521.93 256.85 1472.1 256.85"/><polygon class="cls-11" points="1546.84 213.7 1521.93 256.85 1497.02 213.7 1546.84 213.7"/><polygon class="cls-12" points="1521.93 256.85 1546.84 213.7 1571.76 256.85 1521.93 256.85"/><polygon class="cls-13" points="1596.67 213.7 1571.76 256.85 1546.84 213.7 1596.67 213.7"/><polygon class="cls-14" points="1571.76 256.85 1596.67 213.7 1621.58 256.85 1571.76 256.85"/><polygon class="cls-24" points="1646.5 213.7 1621.58 256.85 1596.67 213.7 1646.5 213.7"/><polygon class="cls-22" points="1621.58 256.85 1646.5 213.7 1671.41 256.85 1621.58 256.85"/><polygon class="cls-15" points="1621.58 256.85 1596.67 300 1571.76 256.85 1621.58 256.85"/><polygon class="cls-16" points="1546.84 300 1571.76 256.85 1596.67 300 1546.84 300"/><polygon class="cls-17" points="1571.76 256.85 1546.84 300 1521.93 256.85 1571.76 256.85"/><polygon class="cls-18" points="1497.02 300 1521.93 256.85 1546.84 300 1497.02 300"/><polygon class="cls-19" points="1521.93 256.85 1497.02 300 1472.1 256.85 1521.93 256.85"/><polygon class="cls-20" points="1447.19 300 1472.1 256.85 1497.02 300 1447.19 300"/><polygon class="cls-21" points="1472.1 256.85 1447.19 300 1422.28 256.85 1472.1 256.85"/><polygon class="cls-25" points="1596.67 300 1621.58 256.85 1646.5 300 1596.67 300"/><polygon class="cls-22" points="1621.58 256.85 1596.67 300 1571.76 256.85 1621.58 256.85"/><polygon class="cls-22" points="1422.28 260.54 1447.19 217.39 1472.1 260.54 1422.28 260.54"/><polygon class="cls-8" points="1222.97 256.85 1198.06 300 1173.14 256.85 1222.97 256.85"/><polygon class="cls-9" points="1148.23 300 1173.14 256.85 1198.06 300 1148.23 300"/><polygon class="cls-10" points="1173.14 256.85 1148.23 300 1123.32 256.85 1173.14 256.85"/><polygon class="cls-11" points="1098.4 300 1123.32 256.85 1148.23 300 1098.4 300"/><polygon class="cls-12" points="1123.32 256.85 1098.4 300 1073.49 256.85 1123.32 256.85"/><polygon class="cls-13" points="1048.58 300 1073.49 256.85 1098.4 300 1048.58 300"/><polygon class="cls-14" points="1073.49 256.85 1048.58 300 1023.66 256.85 1073.49 256.85"/><polygon class="cls-24" points="998.75 300 1023.66 256.85 1048.58 300 998.75 300"/><polygon class="cls-26" points="1073.49 170.54 1048.58 213.7 1023.66 170.54 1073.49 170.54"/><polygon class="cls-27" points="1048.58 213.7 1073.49 170.54 1098.4 213.7 1048.58 213.7"/><polygon class="cls-16" points="1123.32 170.54 1098.4 213.7 1073.49 170.54 1123.32 170.54"/><polygon class="cls-15" points="1098.4 213.7 1123.32 170.54 1148.23 213.7 1098.4 213.7"/><polygon class="cls-17" points="1173.14 170.54 1148.23 213.7 1123.32 170.54 1173.14 170.54"/><polygon class="cls-28" points="1148.23 213.7 1173.14 170.54 1198.06 213.7 1148.23 213.7"/><polygon class="cls-29" points="1222.97 170.54 1198.06 213.7 1173.14 170.54 1222.97 170.54"/><polygon class="cls-15" points="1023.66 256.85 1048.58 213.7 1073.49 256.85 1023.66 256.85"/><polygon class="cls-16" points="1098.4 213.7 1073.49 256.85 1048.58 213.7 1098.4 213.7"/><polygon class="cls-17" points="1073.49 256.85 1098.4 213.7 1123.32 256.85 1073.49 256.85"/><polygon class="cls-18" points="1148.23 213.7 1123.32 256.85 1098.4 213.7 1148.23 213.7"/><polygon class="cls-19" points="1123.32 256.85 1148.23 213.7 1173.14 256.85 1123.32 256.85"/><polygon class="cls-20" points="1198.06 213.7 1173.14 256.85 1148.23 213.7 1198.06 213.7"/><polygon class="cls-21" points="1173.14 256.85 1198.06 213.7 1222.97 256.85 1173.14 256.85"/><polygon class="cls-30" points="998.75 213.7 1023.66 170.54 1048.58 213.7 998.75 213.7"/><polygon class="cls-22" points="1073.49 170.54 1048.58 213.7 1023.66 170.54 1073.49 170.54"/><polygon class="cls-25" points="1048.58 213.7 1023.66 256.85 998.75 213.7 1048.58 213.7"/><polygon class="cls-22" points="1023.66 256.85 1048.58 213.7 1073.49 256.85 1023.66 256.85"/><polygon class="cls-8" points="1422.28 256.85 1397.36 300 1372.45 256.85 1422.28 256.85"/><polygon class="cls-9" points="1347.54 300 1372.45 256.85 1397.36 300 1347.54 300"/><polygon class="cls-10" points="1372.45 256.85 1347.54 300 1322.62 256.85 1372.45 256.85"/><polygon class="cls-11" points="1297.71 300 1322.62 256.85 1347.54 300 1297.71 300"/><polygon class="cls-12" points="1322.62 256.85 1297.71 300 1272.8 256.85 1322.62 256.85"/><polygon class="cls-13" points="1247.88 300 1272.8 256.85 1297.71 300 1247.88 300"/><polygon class="cls-14" points="1272.8 256.85 1247.88 300 1222.97 256.85 1272.8 256.85"/><polygon class="cls-24" points="1198.06 300 1222.97 256.85 1247.88 300 1198.06 300"/><polygon class="cls-22" points="1222.97 256.85 1198.06 300 1173.14 256.85 1222.97 256.85"/><polygon class="cls-26" points="1272.8 170.54 1247.88 213.7 1222.97 170.54 1272.8 170.54"/><polygon class="cls-27" points="1247.88 213.7 1272.8 170.54 1297.71 213.7 1247.88 213.7"/><polygon class="cls-16" points="1322.62 170.54 1297.71 213.7 1272.8 170.54 1322.62 170.54"/><polygon class="cls-15" points="1297.71 213.7 1322.62 170.54 1347.54 213.7 1297.71 213.7"/><polygon class="cls-17" points="1372.45 170.54 1347.54 213.7 1322.62 170.54 1372.45 170.54"/><polygon class="cls-28" points="1347.54 213.7 1372.45 170.54 1397.36 213.7 1347.54 213.7"/><polygon class="cls-29" points="1422.28 170.54 1397.36 213.7 1372.45 170.54 1422.28 170.54"/><polygon class="cls-15" points="1222.97 256.85 1247.88 213.7 1272.8 256.85 1222.97 256.85"/><polygon class="cls-16" points="1297.71 213.7 1272.8 256.85 1247.88 213.7 1297.71 213.7"/><polygon class="cls-17" points="1272.8 256.85 1297.71 213.7 1322.62 256.85 1272.8 256.85"/><polygon class="cls-18" points="1347.54 213.7 1322.62 256.85 1297.71 213.7 1347.54 213.7"/><polygon class="cls-19" points="1322.62 256.85 1347.54 213.7 1372.45 256.85 1322.62 256.85"/><polygon class="cls-20" points="1397.36 213.7 1372.45 256.85 1347.54 213.7 1397.36 213.7"/><polygon class="cls-21" points="1372.45 256.85 1397.36 213.7 1422.28 256.85 1372.45 256.85"/><polygon class="cls-30" points="1198.06 213.7 1222.97 170.54 1247.88 213.7 1198.06 213.7"/><polygon class="cls-22" points="1272.8 170.54 1247.88 213.7 1222.97 170.54 1272.8 170.54"/><polygon class="cls-25" points="1247.88 213.7 1222.97 256.85 1198.06 213.7 1247.88 213.7"/><polygon class="cls-22" points="1222.97 256.85 1247.88 213.7 1272.8 256.85 1222.97 256.85"/><polygon class="cls-9" points="1397.36 300 1422.28 256.85 1447.19 300 1397.36 300"/><polygon class="cls-28" points="1397.36 213.7 1422.28 170.54 1447.19 213.7 1397.36 213.7"/><polygon class="cls-20" points="1447.19 213.7 1422.28 256.85 1397.36 213.7 1447.19 213.7"/><polygon class="cls-1" points="1920.54 -2.06 1895.63 41.09 1870.72 -2.06 1920.54 -2.06"/><polygon class="cls-2" points="1895.63 41.09 1920.54 -2.06 1945.46 41.09 1895.63 41.09"/><polygon class="cls-3" points="1970.37 -2.06 1945.46 41.09 1920.54 -2.06 1970.37 -2.06"/><polygon class="cls-4" points="1945.46 41.09 1970.37 -2.06 1995.28 41.09 1945.46 41.09"/><polygon class="cls-5" points="2020.2 -2.06 1995.28 41.09 1970.37 -2.06 2020.2 -2.06"/><polygon class="cls-22" points="998.75 300 1023.66 256.85 1048.58 300 998.75 300"/><polygon class="cls-8" points="1870.72 84.24 1895.63 41.09 1920.54 84.24 1870.72 84.24"/><polygon class="cls-9" points="1945.46 41.09 1920.54 84.24 1895.63 41.09 1945.46 41.09"/><polygon class="cls-10" points="1920.54 84.24 1945.46 41.09 1970.37 84.24 1920.54 84.24"/><polygon class="cls-11" points="1995.28 41.09 1970.37 84.24 1945.46 41.09 1995.28 41.09"/><polygon class="cls-12" points="1970.37 84.24 1995.28 41.09 2020.2 84.24 1970.37 84.24"/><polygon class="cls-22" points="1048.58 213.7 1023.66 256.85 998.75 213.7 1048.58 213.7"/><polygon class="cls-16" points="1970.37 170.54 1995.28 127.39 2020.2 170.54 1970.37 170.54"/><polygon class="cls-15" points="1995.28 127.39 1970.37 170.54 1945.46 127.39 1995.28 127.39"/><polygon class="cls-17" points="1920.54 170.54 1945.46 127.39 1970.37 170.54 1920.54 170.54"/><polygon class="cls-28" points="1945.46 127.39 1920.54 170.54 1895.63 127.39 1945.46 127.39"/><polygon class="cls-29" points="1870.72 170.54 1895.63 127.39 1920.54 170.54 1870.72 170.54"/><polygon class="cls-17" points="2020.2 84.24 1995.28 127.39 1970.37 84.24 2020.2 84.24"/><polygon class="cls-18" points="1945.46 127.39 1970.37 84.24 1995.28 127.39 1945.46 127.39"/><polygon class="cls-19" points="1970.37 84.24 1945.46 127.39 1920.54 84.24 1970.37 84.24"/><polygon class="cls-20" points="1895.63 127.39 1920.54 84.24 1945.46 127.39 1895.63 127.39"/><polygon class="cls-21" points="1920.54 84.24 1895.63 127.39 1870.72 84.24 1920.54 84.24"/><polygon class="cls-1" points="1721.24 -2.06 1696.32 41.09 1671.41 -2.06 1721.24 -2.06"/><polygon class="cls-2" points="1696.32 41.09 1721.24 -2.06 1746.15 41.09 1696.32 41.09"/><polygon class="cls-3" points="1771.06 -2.06 1746.15 41.09 1721.24 -2.06 1771.06 -2.06"/><polygon class="cls-4" points="1746.15 41.09 1771.06 -2.06 1795.98 41.09 1746.15 41.09"/><polygon class="cls-5" points="1820.89 -2.06 1795.98 41.09 1771.06 -2.06 1820.89 -2.06"/><polygon class="cls-6" points="1795.98 41.09 1820.89 -2.06 1845.8 41.09 1795.98 41.09"/><polygon class="cls-7" points="1870.72 -2.06 1845.8 41.09 1820.89 -2.06 1870.72 -2.06"/><polygon class="cls-23" points="1845.8 41.09 1870.72 -2.06 1895.63 41.09 1845.8 41.09"/><polygon class="cls-22" points="1920.54 -2.06 1895.63 41.09 1870.72 -2.06 1920.54 -2.06"/><polygon class="cls-8" points="1671.41 84.24 1696.32 41.09 1721.24 84.24 1671.41 84.24"/><polygon class="cls-9" points="1746.15 41.09 1721.24 84.24 1696.32 41.09 1746.15 41.09"/><polygon class="cls-10" points="1721.24 84.24 1746.15 41.09 1771.06 84.24 1721.24 84.24"/><polygon class="cls-11" points="1795.98 41.09 1771.06 84.24 1746.15 41.09 1795.98 41.09"/><polygon class="cls-12" points="1771.06 84.24 1795.98 41.09 1820.89 84.24 1771.06 84.24"/><polygon class="cls-13" points="1845.8 41.09 1820.89 84.24 1795.98 41.09 1845.8 41.09"/><polygon class="cls-14" points="1820.89 84.24 1845.8 41.09 1870.72 84.24 1820.89 84.24"/><polygon class="cls-24" points="1895.63 41.09 1870.72 84.24 1845.8 41.09 1895.63 41.09"/><polygon class="cls-22" points="1870.72 84.24 1895.63 41.09 1920.54 84.24 1870.72 84.24"/><polygon class="cls-22" points="1472.1 84.24 1447.19 127.39 1422.28 84.24 1472.1 84.24"/><polygon class="cls-22" points="1422.28 170.54 1447.19 127.39 1472.1 170.54 1422.28 170.54"/><polygon class="cls-26" points="1820.89 170.54 1845.8 127.39 1870.72 170.54 1820.89 170.54"/><polygon class="cls-27" points="1845.8 127.39 1820.89 170.54 1795.98 127.39 1845.8 127.39"/><polygon class="cls-16" points="1771.06 170.54 1795.98 127.39 1820.89 170.54 1771.06 170.54"/><polygon class="cls-15" points="1795.98 127.39 1771.06 170.54 1746.15 127.39 1795.98 127.39"/><polygon class="cls-17" points="1721.24 170.54 1746.15 127.39 1771.06 170.54 1721.24 170.54"/><polygon class="cls-28" points="1746.15 127.39 1721.24 170.54 1696.32 127.39 1746.15 127.39"/><polygon class="cls-29" points="1671.41 170.54 1696.32 127.39 1721.24 170.54 1671.41 170.54"/><polygon class="cls-15" points="1870.72 84.24 1845.8 127.39 1820.89 84.24 1870.72 84.24"/><polygon class="cls-16" points="1795.98 127.39 1820.89 84.24 1845.8 127.39 1795.98 127.39"/><polygon class="cls-17" points="1820.89 84.24 1795.98 127.39 1771.06 84.24 1820.89 84.24"/><polygon class="cls-18" points="1746.15 127.39 1771.06 84.24 1795.98 127.39 1746.15 127.39"/><polygon class="cls-19" points="1771.06 84.24 1746.15 127.39 1721.24 84.24 1771.06 84.24"/><polygon class="cls-20" points="1696.32 127.39 1721.24 84.24 1746.15 127.39 1696.32 127.39"/><polygon class="cls-21" points="1721.24 84.24 1696.32 127.39 1671.41 84.24 1721.24 84.24"/><polygon class="cls-30" points="1895.63 127.39 1870.72 170.54 1845.8 127.39 1895.63 127.39"/><polygon class="cls-22" points="1820.89 170.54 1845.8 127.39 1870.72 170.54 1820.89 170.54"/><polygon class="cls-25" points="1845.8 127.39 1870.72 84.24 1895.63 127.39 1845.8 127.39"/><polygon class="cls-22" points="1870.72 84.24 1845.8 127.39 1820.89 84.24 1870.72 84.24"/><polygon class="cls-1" points="1671.41 -2.06 1646.5 41.09 1621.58 -2.06 1671.41 -2.06"/><polygon class="cls-2" points="1646.5 41.09 1671.41 -2.06 1696.32 41.09 1646.5 41.09"/><polygon class="cls-8" points="1621.58 84.24 1646.5 41.09 1671.41 84.24 1621.58 84.24"/><polygon class="cls-9" points="1696.32 41.09 1671.41 84.24 1646.5 41.09 1696.32 41.09"/><polygon class="cls-28" points="1696.32 127.39 1671.41 170.54 1646.5 127.39 1696.32 127.39"/><polygon class="cls-29" points="1621.58 170.54 1646.5 127.39 1671.41 170.54 1621.58 170.54"/><polygon class="cls-20" points="1646.5 127.39 1671.41 84.24 1696.32 127.39 1646.5 127.39"/><polygon class="cls-21" points="1671.41 84.24 1646.5 127.39 1621.58 84.24 1671.41 84.24"/><polygon class="cls-1" points="1472.1 -2.06 1447.19 41.09 1422.28 -2.06 1472.1 -2.06"/><polygon class="cls-2" points="1447.19 41.09 1472.1 -2.06 1497.02 41.09 1447.19 41.09"/><polygon class="cls-3" points="1521.93 -2.06 1497.02 41.09 1472.1 -2.06 1521.93 -2.06"/><polygon class="cls-4" points="1497.02 41.09 1521.93 -2.06 1546.84 41.09 1497.02 41.09"/><polygon class="cls-5" points="1571.76 -2.06 1546.84 41.09 1521.93 -2.06 1571.76 -2.06"/><polygon class="cls-6" points="1546.84 41.09 1571.76 -2.06 1596.67 41.09 1546.84 41.09"/><polygon class="cls-7" points="1621.58 -2.06 1596.67 41.09 1571.76 -2.06 1621.58 -2.06"/><polygon class="cls-23" points="1596.67 41.09 1621.58 -2.06 1646.5 41.09 1596.67 41.09"/><polygon class="cls-22" points="1671.41 -2.06 1646.5 41.09 1621.58 -2.06 1671.41 -2.06"/><polygon class="cls-8" points="1422.28 84.24 1447.19 41.09 1472.1 84.24 1422.28 84.24"/><polygon class="cls-9" points="1497.02 41.09 1472.1 84.24 1447.19 41.09 1497.02 41.09"/><polygon class="cls-10" points="1472.1 84.24 1497.02 41.09 1521.93 84.24 1472.1 84.24"/><polygon class="cls-11" points="1546.84 41.09 1521.93 84.24 1497.02 41.09 1546.84 41.09"/><polygon class="cls-12" points="1521.93 84.24 1546.84 41.09 1571.76 84.24 1521.93 84.24"/><polygon class="cls-13" points="1596.67 41.09 1571.76 84.24 1546.84 41.09 1596.67 41.09"/><polygon class="cls-14" points="1571.76 84.24 1596.67 41.09 1621.58 84.24 1571.76 84.24"/><polygon class="cls-24" points="1646.5 41.09 1621.58 84.24 1596.67 41.09 1646.5 41.09"/><polygon class="cls-22" points="1621.58 84.24 1646.5 41.09 1671.41 84.24 1621.58 84.24"/><polygon class="cls-26" points="1571.76 170.54 1596.67 127.39 1621.58 170.54 1571.76 170.54"/><polygon class="cls-27" points="1596.67 127.39 1571.76 170.54 1546.84 127.39 1596.67 127.39"/><polygon class="cls-16" points="1521.93 170.54 1546.84 127.39 1571.76 170.54 1521.93 170.54"/><polygon class="cls-15" points="1546.84 127.39 1521.93 170.54 1497.02 127.39 1546.84 127.39"/><polygon class="cls-17" points="1472.1 170.54 1497.02 127.39 1521.93 170.54 1472.1 170.54"/><polygon class="cls-28" points="1497.02 127.39 1472.1 170.54 1447.19 127.39 1497.02 127.39"/><polygon class="cls-29" points="1422.28 170.54 1447.19 127.39 1472.1 170.54 1422.28 170.54"/><polygon class="cls-15" points="1621.58 84.24 1596.67 127.39 1571.76 84.24 1621.58 84.24"/><polygon class="cls-16" points="1546.84 127.39 1571.76 84.24 1596.67 127.39 1546.84 127.39"/><polygon class="cls-17" points="1571.76 84.24 1546.84 127.39 1521.93 84.24 1571.76 84.24"/><polygon class="cls-18" points="1497.02 127.39 1521.93 84.24 1546.84 127.39 1497.02 127.39"/><polygon class="cls-19" points="1521.93 84.24 1497.02 127.39 1472.1 84.24 1521.93 84.24"/><polygon class="cls-20" points="1447.19 127.39 1472.1 84.24 1497.02 127.39 1447.19 127.39"/><polygon class="cls-21" points="1472.1 84.24 1447.19 127.39 1422.28 84.24 1472.1 84.24"/><polygon class="cls-30" points="1646.5 127.39 1621.58 170.54 1596.67 127.39 1646.5 127.39"/><polygon class="cls-22" points="1571.76 170.54 1596.67 127.39 1621.58 170.54 1571.76 170.54"/><polygon class="cls-25" points="1596.67 127.39 1621.58 84.24 1646.5 127.39 1596.67 127.39"/><polygon class="cls-22" points="1621.58 84.24 1596.67 127.39 1571.76 84.24 1621.58 84.24"/><polygon class="cls-22" points="1422.28 87.93 1447.19 44.78 1472.1 87.93 1422.28 87.93"/><polygon class="cls-1" points="1173.14 170.54 1198.06 127.39 1222.97 170.54 1173.14 170.54"/><polygon class="cls-2" points="1198.06 127.39 1173.14 170.54 1148.23 127.39 1198.06 127.39"/><polygon class="cls-3" points="1123.32 170.54 1148.23 127.39 1173.14 170.54 1123.32 170.54"/><polygon class="cls-4" points="1148.23 127.39 1123.32 170.54 1098.4 127.39 1148.23 127.39"/><polygon class="cls-5" points="1073.49 170.54 1098.4 127.39 1123.32 170.54 1073.49 170.54"/><polygon class="cls-6" points="1098.4 127.39 1073.49 170.54 1048.58 127.39 1098.4 127.39"/><polygon class="cls-7" points="1023.66 170.54 1048.58 127.39 1073.49 170.54 1023.66 170.54"/><polygon class="cls-23" points="1048.58 127.39 1023.66 170.54 998.75 127.39 1048.58 127.39"/><polygon class="cls-8" points="1222.97 84.24 1198.06 127.39 1173.14 84.24 1222.97 84.24"/><polygon class="cls-9" points="1148.23 127.39 1173.14 84.24 1198.06 127.39 1148.23 127.39"/><polygon class="cls-10" points="1173.14 84.24 1148.23 127.39 1123.32 84.24 1173.14 84.24"/><polygon class="cls-11" points="1098.4 127.39 1123.32 84.24 1148.23 127.39 1098.4 127.39"/><polygon class="cls-12" points="1123.32 84.24 1098.4 127.39 1073.49 84.24 1123.32 84.24"/><polygon class="cls-13" points="1048.58 127.39 1073.49 84.24 1098.4 127.39 1048.58 127.39"/><polygon class="cls-14" points="1073.49 84.24 1048.58 127.39 1023.66 84.24 1073.49 84.24"/><polygon class="cls-24" points="998.75 127.39 1023.66 84.24 1048.58 127.39 998.75 127.39"/><polygon class="cls-26" points="1073.49 -2.06 1048.58 41.09 1023.66 -2.06 1073.49 -2.06"/><polygon class="cls-27" points="1048.58 41.09 1073.49 -2.06 1098.4 41.09 1048.58 41.09"/><polygon class="cls-16" points="1123.32 -2.06 1098.4 41.09 1073.49 -2.06 1123.32 -2.06"/><polygon class="cls-15" points="1098.4 41.09 1123.32 -2.06 1148.23 41.09 1098.4 41.09"/><polygon class="cls-17" points="1173.14 -2.06 1148.23 41.09 1123.32 -2.06 1173.14 -2.06"/><polygon class="cls-28" points="1148.23 41.09 1173.14 -2.06 1198.06 41.09 1148.23 41.09"/><polygon class="cls-29" points="1222.97 -2.06 1198.06 41.09 1173.14 -2.06 1222.97 -2.06"/><polygon class="cls-15" points="1023.66 84.24 1048.58 41.09 1073.49 84.24 1023.66 84.24"/><polygon class="cls-16" points="1098.4 41.09 1073.49 84.24 1048.58 41.09 1098.4 41.09"/><polygon class="cls-17" points="1073.49 84.24 1098.4 41.09 1123.32 84.24 1073.49 84.24"/><polygon class="cls-18" points="1148.23 41.09 1123.32 84.24 1098.4 41.09 1148.23 41.09"/><polygon class="cls-19" points="1123.32 84.24 1148.23 41.09 1173.14 84.24 1123.32 84.24"/><polygon class="cls-20" points="1198.06 41.09 1173.14 84.24 1148.23 41.09 1198.06 41.09"/><polygon class="cls-21" points="1173.14 84.24 1198.06 41.09 1222.97 84.24 1173.14 84.24"/><polygon class="cls-30" points="998.75 41.09 1023.66 -2.06 1048.58 41.09 998.75 41.09"/><polygon class="cls-22" points="1073.49 -2.06 1048.58 41.09 1023.66 -2.06 1073.49 -2.06"/><polygon class="cls-25" points="1048.58 41.09 1023.66 84.24 998.75 41.09 1048.58 41.09"/><polygon class="cls-22" points="1023.66 84.24 1048.58 41.09 1073.49 84.24 1023.66 84.24"/><polygon class="cls-1" points="1372.45 170.54 1397.36 127.39 1422.28 170.54 1372.45 170.54"/><polygon class="cls-2" points="1397.36 127.39 1372.45 170.54 1347.54 127.39 1397.36 127.39"/><polygon class="cls-3" points="1322.62 170.54 1347.54 127.39 1372.45 170.54 1322.62 170.54"/><polygon class="cls-4" points="1347.54 127.39 1322.62 170.54 1297.71 127.39 1347.54 127.39"/><polygon class="cls-5" points="1272.8 170.54 1297.71 127.39 1322.62 170.54 1272.8 170.54"/><polygon class="cls-6" points="1297.71 127.39 1272.8 170.54 1247.88 127.39 1297.71 127.39"/><polygon class="cls-7" points="1222.97 170.54 1247.88 127.39 1272.8 170.54 1222.97 170.54"/><polygon class="cls-23" points="1247.88 127.39 1222.97 170.54 1198.06 127.39 1247.88 127.39"/><polygon class="cls-22" points="1173.14 170.54 1198.06 127.39 1222.97 170.54 1173.14 170.54"/><polygon class="cls-8" points="1422.28 84.24 1397.36 127.39 1372.45 84.24 1422.28 84.24"/><polygon class="cls-9" points="1347.54 127.39 1372.45 84.24 1397.36 127.39 1347.54 127.39"/><polygon class="cls-10" points="1372.45 84.24 1347.54 127.39 1322.62 84.24 1372.45 84.24"/><polygon class="cls-11" points="1297.71 127.39 1322.62 84.24 1347.54 127.39 1297.71 127.39"/><polygon class="cls-12" points="1322.62 84.24 1297.71 127.39 1272.8 84.24 1322.62 84.24"/><polygon class="cls-13" points="1247.88 127.39 1272.8 84.24 1297.71 127.39 1247.88 127.39"/><polygon class="cls-14" points="1272.8 84.24 1247.88 127.39 1222.97 84.24 1272.8 84.24"/><polygon class="cls-24" points="1198.06 127.39 1222.97 84.24 1247.88 127.39 1198.06 127.39"/><polygon class="cls-22" points="1222.97 84.24 1198.06 127.39 1173.14 84.24 1222.97 84.24"/><polygon class="cls-26" points="1272.8 -2.06 1247.88 41.09 1222.97 -2.06 1272.8 -2.06"/><polygon class="cls-27" points="1247.88 41.09 1272.8 -2.06 1297.71 41.09 1247.88 41.09"/><polygon class="cls-16" points="1322.62 -2.06 1297.71 41.09 1272.8 -2.06 1322.62 -2.06"/><polygon class="cls-15" points="1297.71 41.09 1322.62 -2.06 1347.54 41.09 1297.71 41.09"/><polygon class="cls-17" points="1372.45 -2.06 1347.54 41.09 1322.62 -2.06 1372.45 -2.06"/><polygon class="cls-28" points="1347.54 41.09 1372.45 -2.06 1397.36 41.09 1347.54 41.09"/><polygon class="cls-29" points="1422.28 -2.06 1397.36 41.09 1372.45 -2.06 1422.28 -2.06"/><polygon class="cls-15" points="1222.97 84.24 1247.88 41.09 1272.8 84.24 1222.97 84.24"/><polygon class="cls-16" points="1297.71 41.09 1272.8 84.24 1247.88 41.09 1297.71 41.09"/><polygon class="cls-17" points="1272.8 84.24 1297.71 41.09 1322.62 84.24 1272.8 84.24"/><polygon class="cls-18" points="1347.54 41.09 1322.62 84.24 1297.71 41.09 1347.54 41.09"/><polygon class="cls-19" points="1322.62 84.24 1347.54 41.09 1372.45 84.24 1322.62 84.24"/><polygon class="cls-20" points="1397.36 41.09 1372.45 84.24 1347.54 41.09 1397.36 41.09"/><polygon class="cls-21" points="1372.45 84.24 1397.36 41.09 1422.28 84.24 1372.45 84.24"/><polygon class="cls-30" points="1198.06 41.09 1222.97 -2.06 1247.88 41.09 1198.06 41.09"/><polygon class="cls-22" points="1272.8 -2.06 1247.88 41.09 1222.97 -2.06 1272.8 -2.06"/><polygon class="cls-25" points="1247.88 41.09 1222.97 84.24 1198.06 41.09 1247.88 41.09"/><polygon class="cls-22" points="1222.97 84.24 1247.88 41.09 1272.8 84.24 1222.97 84.24"/><polygon class="cls-2" points="1447.19 127.39 1422.28 170.54 1397.36 127.39 1447.19 127.39"/><polygon class="cls-9" points="1397.36 127.39 1422.28 84.24 1447.19 127.39 1397.36 127.39"/><polygon class="cls-28" points="1397.36 41.09 1422.28 -2.06 1447.19 41.09 1397.36 41.09"/><polygon class="cls-20" points="1447.19 41.09 1422.28 84.24 1397.36 41.09 1447.19 41.09"/><polygon class="cls-22" points="1422.28 170.54 1447.19 127.39 1472.1 170.54 1422.28 170.54"/><polygon class="cls-22" points="1073.49 170.54 1048.58 213.7 1023.66 170.54 1073.49 170.54"/><polygon class="cls-22" points="1023.66 256.85 1048.58 213.7 1073.49 256.85 1023.66 256.85"/><polygon class="cls-22" points="1073.49 -2.06 1048.58 41.09 1023.66 -2.06 1073.49 -2.06"/><polygon class="cls-22" points="1023.66 84.24 1048.58 41.09 1073.49 84.24 1023.66 84.24"/></svg>